SplineFontDB: 3.2
FontName: RiverAlethiWomensScript
FullName: River Alethi Womens Script
FamilyName: River Alethi
Weight: Regular
Copyright: Copyright (c) 2022, River
UComments: "2022-3-5: Created with FontForge (http://fontforge.org)"
FontLog: "This is a digital font based on the Alethi women's script from the Stormlight Archive.+AAoACgAA-Contributors: Brandon Sanderson wrote the book series (the Stormlight Archive) that the Alethi script is from, Isaac Stewart made the script and the number glyphs, and I (River) designed a digital font from it and added some characters."
Version: 001.000
ItalicAngle: 0
UnderlinePosition: -204.8
UnderlineWidth: 102.4
Ascent: 1024
Descent: 1024
InvalidEm: 0
LayerCount: 2
Layer: 0 0 "Back" 1
Layer: 1 0 "Fore" 0
XUID: [1021 788 1646968218 12420331]
StyleMap: 0x0000
FSType: 0
OS2Version: 0
OS2_WeightWidthSlopeOnly: 0
OS2_UseTypoMetrics: 1
CreationTime: 1646490116
ModificationTime: 1649200634
PfmFamily: 65
TTFWeight: 400
TTFWidth: 5
LineGap: 184
VLineGap: 184
OS2TypoAscent: 0
OS2TypoAOffset: 1
OS2TypoDescent: 0
OS2TypoDOffset: 1
OS2TypoLinegap: 184
OS2WinAscent: 0
OS2WinAOffset: 1
OS2WinDescent: 0
OS2WinDOffset: 1
HheadAscent: 0
HheadAOffset: 1
HheadDescent: 0
HheadDOffset: 1
OS2Vendor: 'PfEd'
Lookup: 4 0 0 "C_H" { "C_H-1"  } ['liga' ('DFLT' <'dflt' > 'latn' <'dflt' > ) ]
Lookup: 4 0 0 "c_h" { "c_h-1"  } ['liga' ('DFLT' <'dflt' > 'latn' <'dflt' > ) ]
Lookup: 4 0 0 "S_H" { "S_H-1"  } ['liga' ('DFLT' <'dflt' > 'latn' <'dflt' > ) ]
Lookup: 4 0 0 "s_h" { "s_h-1"  } ['liga' ('DFLT' <'dflt' > 'latn' <'dflt' > ) ]
Lookup: 4 0 0 "T_H" { "T_H-1"  } ['liga' ('DFLT' <'dflt' > 'latn' <'dflt' > ) ]
Lookup: 4 0 0 "t_h" { "t_h ligature-1"  } ['liga' ('DFLT' <'dflt' > 'latn' <'dflt' > ) ]
MarkAttachClasses: 1
DEI: 91125
Encoding: ISO8859-1
UnicodeInterp: none
NameList: AGL For New Fonts
DisplaySize: -48
AntiAlias: 1
FitToEm: 0
WinInfo: 0 38 14
BeginPrivate: 0
EndPrivate
Grid
-2048 -409.599609375 m 0
 4096 -409.599609375 l 1024
-2048 409.599609375 m 0

StartChar: a
Encoding: 97 97 0
Width: 204
Flags: W
HStem: -34 68<0 68 137 205> 663 20G<68 137> 663 20G<68 137>
VStem: 68 69<-683 -34 34 683>
LayerCount: 2
Fore
SplineSet
0 34 m 29xd0
 68 34 l 29
 68 683 l 29
 137 683 l 29
 137 34 l 29
 205 34 l 29
 205 -34 l 29
 137 -34 l 29
 137 -683 l 29
 68 -683 l 29
 68 -34 l 29
 0 -34 l 29
 0 34 l 29xd0
EndSplineSet
Validated: 1
EndChar

StartChar: e
Encoding: 101 101 1
Width: 204
Flags: W
HStem: -34 68<0 68 137 205> 1004 20G<68 137>
VStem: 68 69<-1024 -34 34 1024>
LayerCount: 2
Fore
SplineSet
0 34 m 25
 68 34 l 25
 68 1024 l 25
 137 1024 l 25
 137 34 l 25
 205 34 l 25
 205 -34 l 25
 137 -34 l 25
 137 -1024 l 25
 68 -1024 l 25
 68 -34 l 25
 0 -34 l 25
 0 34 l 25
EndSplineSet
Validated: 1
EndChar

StartChar: o
Encoding: 111 111 2
Width: 204
Flags: W
HStem: -34 68<0 68 137 205> 321 20G<68 137> 321 20G<68 137>
VStem: 68 69<-341 -34 34 341>
LayerCount: 2
Fore
SplineSet
205 -34 m 25xd0
 137 -34 l 25
 137 -341 l 25
 68 -341 l 25
 68 -34 l 25
 0 -34 l 25
 0 34 l 25
 68 34 l 25
 68 341 l 25
 137 341 l 25
 137 34 l 25
 205 34 l 25
 205 -34 l 25xd0
EndSplineSet
Validated: 1
EndChar

StartChar: u
Encoding: 117 117 3
Width: 477
Flags: W
HStem: -34 68<0 68 137 205 273 341 410 478> 663 20G<68 137> 663 20G<68 137>
VStem: 68 69<-683 -34 34 683> 205 68<-171 -34 34 171> 341 69<-171 -34 34 171>
CounterMasks: 1 1c
LayerCount: 2
Fore
SplineSet
0 34 m 25xdc
 68 34 l 25
 68 683 l 25
 137 683 l 25
 137 34 l 25
 205 34 l 25
 205 171 l 25
 273 171 l 25
 273 34 l 25
 341 34 l 25
 341 171 l 25
 410 171 l 25
 410 34 l 25
 478 34 l 25
 478 -34 l 25
 410 -34 l 25
 410 -171 l 25
 341 -171 l 25
 341 -34 l 25
 273 -34 l 25
 273 -171 l 25
 205 -171 l 25
 205 -34 l 25
 137 -34 l 25
 137 -683 l 25
 68 -683 l 25
 68 -34 l 25
 0 -34 l 25
 0 34 l 25xdc
EndSplineSet
Validated: 1
EndChar

StartChar: w
Encoding: 119 119 4
Width: 477
Flags: W
HStem: -34 68<0 68 137 205 273 341 410 478> 663 20G<68 137> 663 20G<68 137>
VStem: 68 69<-683 -34 34 683> 205 68<-171 -34 34 171> 341 69<-171 -34 34 171>
CounterMasks: 1 1c
LayerCount: 2
Fore
SplineSet
0 34 m 25xdc
 68 34 l 25
 68 683 l 25
 137 683 l 25
 137 34 l 25
 205 34 l 25
 205 171 l 25
 273 171 l 25
 273 34 l 25
 341 34 l 25
 341 171 l 25
 410 171 l 25
 410 34 l 25
 478 34 l 25
 478 -34 l 25
 410 -34 l 25
 410 -171 l 25
 341 -171 l 25
 341 -34 l 25
 273 -34 l 25
 273 -171 l 25
 205 -171 l 25
 205 -34 l 25
 137 -34 l 25
 137 -683 l 25
 68 -683 l 25
 68 -34 l 25
 0 -34 l 25
 0 34 l 25xdc
EndSplineSet
Validated: 1
EndChar

StartChar: i
Encoding: 105 105 5
Width: 341
Flags: W
HStem: -343 21G<68 137> -34 68<0 68 137 205 273 341> 321 20G<68 137> 321 20G<68 137>
VStem: 68 69<-341 -34 34 341> 205 68<-171 -34 34 171>
LayerCount: 2
Fore
SplineSet
0 -34 m 25xec
 0 34 l 25
 68 34 l 25
 68 341 l 25
 137 341 l 25
 137 34 l 25
 205 34 l 25
 205 171 l 25
 273 171 l 25
 273 34 l 25
 341 34 l 25
 341 -34 l 25
 273 -34 l 25
 273 -171 l 25
 205 -171 l 25
 205 -34 l 25
 137 -34 l 25
 137 -341 l 25
 68 -343 l 25
 68 -34 l 25
 0 -34 l 25xec
EndSplineSet
Validated: 1
EndChar

StartChar: s
Encoding: 115 115 6
Width: 409
Flags: W
HStem: -34 68<0 68 137 273 341 410> 1004 20G<68 141.121>
VStem: 68 69<-1024 -954.428 -683 -34 34 683 954.428 1024>
LayerCount: 2
Fore
SplineSet
273 -34 m 29
 137 -34 l 29
 137 -683 l 29
 273 -34 l 29
137 34 m 29
 273 34 l 29
 137 683 l 29
 137 34 l 29
68 -34 m 29
 0 -34 l 29
 0 34 l 29
 68 34 l 29
 68 1024 l 29
 137 1024 l 29
 341 34 l 29
 410 34 l 29
 410 -34 l 29
 341 -34 l 29
 137 -1024 l 29
 68 -1024 l 29
 68 -34 l 29
EndSplineSet
Validated: 1
EndChar

StartChar: S
Encoding: 83 83 7
Width: 409
Flags: W
HStem: -34 68<0 68 341 410> 1004 20G<68 141.121>
VStem: 68 69<-1024 -954.428 954.428 1024>
LayerCount: 2
Fore
SplineSet
68 -34 m 25
 0 -34 l 25
 0 34 l 25
 68 34 l 25
 68 1024 l 25
 137 1024 l 25
 341 34 l 25
 410 34 l 25
 410 -34 l 25
 341 -34 l 25
 137 -1024 l 25
 68 -1024 l 25
 68 -34 l 25
EndSplineSet
Validated: 1
EndChar

StartChar: Z
Encoding: 90 90 8
Width: 409
Flags: W
HStem: -34 68<0 68 341 410> 663 20G<68 143.287> 663 20G<68 143.287>
VStem: 68 69<-683 -637.392 637.392 683>
LayerCount: 2
Fore
SplineSet
68 -34 m 25xd0
 0 -34 l 25
 0 34 l 25
 68 34 l 25
 68 683 l 25
 137 683 l 25
 341 34 l 25
 410 34 l 25
 410 -34 l 25
 341 -34 l 25
 137 -683 l 25
 68 -683 l 25
 68 -34 l 25xd0
EndSplineSet
Validated: 1
EndChar

StartChar: N
Encoding: 78 78 9
Width: 409
Flags: W
HStem: -34 68<0 68 341 410> 321 20G<68 150.29> 321 20G<68 150.29>
VStem: 0 410<-34 34>
LayerCount: 2
Fore
SplineSet
68 -34 m 25xd0
 0 -34 l 25
 0 34 l 25
 68 34 l 25
 68 341 l 25
 137 341 l 25
 341 34 l 25
 410 34 l 25
 410 -34 l 25
 341 -34 l 25
 137 -341 l 25
 68 -341 l 25
 68 -34 l 25xd0
EndSplineSet
Validated: 1
EndChar

StartChar: z
Encoding: 122 122 10
Width: 409
Flags: W
HStem: -34 68<0 68 137 273 341 410> 663 20G<68 143.287> 663 20G<68 143.287>
VStem: 68 69<-683 -637.392 -444 -34 34 444 637.392 683>
LayerCount: 2
Fore
SplineSet
273 -34 m 25x90
 137 -34 l 25
 137 -444 l 25
 273 -34 l 25x90
137 34 m 25
 273 34 l 25
 137 444 l 25
 137 34 l 25
68 -34 m 25
 0 -34 l 25
 0 34 l 25
 68 34 l 25
 68 683 l 25
 137 683 l 25xd0
 341 34 l 25
 410 34 l 25
 410 -34 l 25
 341 -34 l 25
 137 -683 l 25
 68 -683 l 25
 68 -34 l 25
EndSplineSet
Validated: 1
EndChar

StartChar: n
Encoding: 110 110 11
Width: 409
Flags: W
HStem: -34 68<0 68 137 273 341 410> 321 20G<68 150.29> 321 20G<68 150.29>
VStem: 68 69<-239 -34 34 239>
LayerCount: 2
Fore
SplineSet
273 -34 m 29x90
 137 -34 l 29
 137 -239 l 29
 273 -34 l 29x90
137 34 m 29
 273 34 l 29
 137 239 l 29
 137 34 l 29
68 -34 m 29
 0 -34 l 29
 0 34 l 29
 68 34 l 29
 68 341 l 29
 137 341 l 29xd0
 341 34 l 29
 410 34 l 29
 410 -34 l 29
 341 -34 l 29
 137 -341 l 29
 68 -341 l 29
 68 -34 l 29
EndSplineSet
Validated: 1
EndChar

StartChar: p
Encoding: 112 112 12
Width: 409
Flags: W
HStem: -34 68<0 68 137 273 341 410> 1004 20G<202.232 207.747>
VStem: 0 410<-34 34>
LayerCount: 2
Fore
SplineSet
273 -34 m 25
 137 -34 l 25
 205 -614 l 25
 273 -34 l 25
137 34 m 25
 273 34 l 25
 205 614 l 25
 137 34 l 25
68 -34 m 25
 0 -34 l 25
 0 34 l 25
 68 34 l 25
 205 1024 l 25
 341 34 l 25
 410 34 l 25
 410 -34 l 25
 341 -34 l 25
 205 -1024 l 25
 68 -34 l 25
EndSplineSet
Validated: 1
EndChar

StartChar: b
Encoding: 98 98 13
Width: 409
Flags: W
HStem: -34 68<0 68 137 273 341 410> 663 20G<200.778 209.191> 663 20G<200.778 209.191>
VStem: 0 410<-34 34>
LayerCount: 2
Fore
SplineSet
273 -34 m 25x90
 137 -34 l 25
 205 -358 l 25
 273 -34 l 25x90
137 34 m 25
 273 34 l 25
 205 358 l 25
 137 34 l 25
68 -34 m 25
 0 -34 l 25
 0 34 l 25
 68 34 l 25
 205 683 l 25xd0
 341 34 l 25
 410 34 l 25
 410 -34 l 25
 341 -34 l 25
 205 -683 l 25
 68 -34 l 25
EndSplineSet
Validated: 1
EndChar

StartChar: m
Encoding: 109 109 14
Width: 409
Flags: W
HStem: -34 68<0 68 137 273 341 410> 321 20G<196.075 213.86> 321 20G<196.075 213.86>
VStem: 0 410<-34 34>
LayerCount: 2
Fore
SplineSet
273 -34 m 25x90
 137 -34 l 25
 205 -188 l 25
 273 -34 l 25x90
137 34 m 25
 273 34 l 25
 205 188 l 29
 137 34 l 25
68 -34 m 25
 0 -34 l 25
 0 34 l 25
 68 34 l 25
 205 341 l 25xd0
 341 34 l 25
 410 34 l 25
 410 -34 l 25
 341 -34 l 25
 205 -341 l 25
 68 -34 l 25
EndSplineSet
Validated: 1
EndChar

StartChar: P
Encoding: 80 80 15
Width: 409
Flags: W
HStem: -34 68<0 68 341 410> 1004 20G<202.232 207.747>
VStem: 0 410<-34 34>
LayerCount: 2
Fore
SplineSet
68 -34 m 25
 0 -34 l 25
 0 34 l 25
 68 34 l 25
 205 1024 l 25
 341 34 l 25
 410 34 l 25
 410 -34 l 25
 341 -34 l 25
 205 -1024 l 25
 68 -34 l 25
EndSplineSet
Validated: 1
EndChar

StartChar: B
Encoding: 66 66 16
Width: 409
Flags: W
HStem: -34 68<0 68 341 410> 663 20G<200.778 209.191> 663 20G<200.778 209.191>
VStem: 0 410<-34 34>
LayerCount: 2
Fore
SplineSet
68 -34 m 25xd0
 0 -34 l 25
 0 34 l 25
 68 34 l 25
 205 683 l 25
 341 34 l 25
 410 34 l 25
 410 -34 l 25
 341 -34 l 25
 205 -683 l 25
 68 -34 l 25xd0
EndSplineSet
Validated: 1
EndChar

StartChar: M
Encoding: 77 77 17
Width: 409
Flags: W
HStem: -34 68<0 68 341 410> 321 20G<196.075 213.86> 321 20G<196.075 213.86>
VStem: 0 410<-34 34>
LayerCount: 2
Fore
SplineSet
68 -34 m 25xd0
 0 -34 l 25
 0 34 l 25
 68 34 l 25
 205 341 l 25
 341 34 l 25
 410 34 l 25
 410 -34 l 25
 341 -34 l 25
 205 -341 l 25
 68 -34 l 25xd0
EndSplineSet
Validated: 1
EndChar

StartChar: t
Encoding: 116 116 18
Width: 409
Flags: W
HStem: -34 68<0 68 137 273 341 410> 1004 20G<268.859 341>
VStem: 273 68<-1024 -954.768 -683 -34 34 683 954.768 1024>
LayerCount: 2
Fore
SplineSet
273 -34 m 29
 137 -34 l 29
 273 -683 l 29
 273 -34 l 29
137 34 m 29
 273 34 l 29
 273 683 l 29
 137 34 l 29
68 -34 m 29
 0 -34 l 29
 0 34 l 29
 68 34 l 29
 273 1024 l 29
 341 1024 l 29
 341 34 l 29
 410 34 l 29
 410 -34 l 29
 341 -34 l 29
 341 -1024 l 29
 273 -1024 l 29
 68 -34 l 29
EndSplineSet
Validated: 1
EndChar

StartChar: d
Encoding: 100 100 19
Width: 409
Flags: W
HStem: -34 68<0 68 137 273 341 410> 663 20G<266.683 341> 663 20G<266.683 341>
VStem: 273 68<-683 -637.614 -461 -34 34 461 637.614 683>
LayerCount: 2
Fore
SplineSet
273 -34 m 29x90
 137 -34 l 29
 273 -461 l 29
 273 -34 l 29x90
137 34 m 29
 273 34 l 29
 273 461 l 29
 137 34 l 29
68 -34 m 29
 0 -34 l 29
 0 34 l 29
 68 34 l 29
 273 683 l 29
 341 683 l 29xd0
 341 34 l 29
 410 34 l 29
 410 -34 l 29
 341 -34 l 29
 341 -683 l 29
 273 -683 l 29
 68 -34 l 29
EndSplineSet
Validated: 1
EndChar

StartChar: r
Encoding: 114 114 20
Width: 409
Flags: W
HStem: -34 68<0 68 137 273 341 410> 321 20G<259.645 341> 321 20G<259.645 341>
VStem: 273 68<-239 -34 34 239>
LayerCount: 2
Fore
SplineSet
273 -34 m 25x90
 137 -34 l 25
 273 -239 l 25
 273 -34 l 25x90
137 34 m 25
 273 34 l 25
 273 239 l 29
 137 34 l 25
68 -34 m 25
 0 -34 l 25
 0 34 l 25
 68 34 l 25
 273 341 l 25
 341 341 l 25xd0
 341 34 l 25
 410 34 l 25
 410 -34 l 25
 341 -34 l 25
 341 -341 l 25
 273 -341 l 25
 68 -34 l 25
EndSplineSet
Validated: 1
EndChar

StartChar: T
Encoding: 84 84 21
Width: 409
Flags: W
HStem: -34 68<0 68 341 410> 1004 20G<268.859 341>
VStem: 273 68<-1024 -954.768 954.768 1024>
LayerCount: 2
Fore
SplineSet
68 -34 m 25
 0 -34 l 25
 0 34 l 25
 68 34 l 25
 273 1024 l 25
 341 1024 l 25
 341 34 l 25
 410 34 l 25
 410 -34 l 25
 341 -34 l 25
 341 -1024 l 25
 273 -1024 l 25
 68 -34 l 25
EndSplineSet
Validated: 1
EndChar

StartChar: D
Encoding: 68 68 22
Width: 409
Flags: W
HStem: -34 68<0 68 341 410> 663 20G<266.683 341> 663 20G<266.683 341>
VStem: 273 68<-683 -637.614 637.614 683>
LayerCount: 2
Fore
SplineSet
68 -34 m 25xd0
 0 -34 l 25
 0 34 l 25
 68 34 l 25
 273 683 l 25
 341 683 l 25
 341 34 l 25
 410 34 l 25
 410 -34 l 25
 341 -34 l 25
 341 -683 l 25
 273 -683 l 25
 68 -34 l 25xd0
EndSplineSet
Validated: 1
EndChar

StartChar: R
Encoding: 82 82 23
Width: 409
Flags: W
HStem: -34 68<0 68 341 410> 321 20G<259.645 341> 321 20G<259.645 341>
VStem: 0 410<-34 34>
LayerCount: 2
Fore
SplineSet
68 -34 m 25xd0
 0 -34 l 25
 0 34 l 25
 68 34 l 25
 273 341 l 25
 341 341 l 25
 341 34 l 25
 410 34 l 25
 410 -34 l 25
 341 -34 l 25
 341 -341 l 25
 273 -341 l 25
 68 -34 l 25xd0
EndSplineSet
Validated: 1
EndChar

StartChar: Thorn
Encoding: 222 222 24
Width: 684
Flags: W
HStem: -34 68<0 68 341 410 478 546 614 684> 663 20G<266.683 341> 663 20G<266.683 341>
VStem: 273 68<-683 -637.614 637.614 683> 410 68<-171 -34 34 171> 546 68<-171 -34 34 171>
LayerCount: 2
Fore
SplineSet
341 -34 m 25xdc
 341 -683 l 25
 273 -683 l 25
 68 -34 l 25
 0 -34 l 25
 0 34 l 25
 68 34 l 25
 273 683 l 25
 341 683 l 25
 341 34 l 25
 410 34 l 25
 410 171 l 25
 478 171 l 25
 478 34 l 25
 546 34 l 25
 546 171 l 25
 614 171 l 25
 614 34 l 25
 684 34 l 29
 684 -34 l 29
 614 -34 l 25
 614 -171 l 25
 546 -171 l 25
 546 -34 l 25
 478 -34 l 25
 478 -171 l 25
 410 -171 l 25
 410 -34 l 25
 341 -34 l 25xdc
EndSplineSet
Validated: 1
EndChar

StartChar: thorn
Encoding: 254 254 25
Width: 684
Flags: W
HStem: -34 68<0 68 137 273 341 410 478 546 614 684> 663 20G<266.683 341> 663 20G<266.683 341>
VStem: 273 68<-683 -637.614 -461 -34 34 461 637.614 683> 410 68<-171 -34 34 171> 546 68<-171 -34 34 171>
LayerCount: 2
Fore
SplineSet
273 -34 m 25x9c
 137 -34 l 25
 273 -461 l 25
 273 -34 l 25x9c
137 34 m 25
 273 34 l 25
 273 461 l 25
 137 34 l 25
341 -34 m 25
 341 -683 l 25
 273 -683 l 25
 68 -34 l 25
 0 -34 l 25
 0 34 l 25
 68 34 l 25
 273 683 l 25
 341 683 l 25xdc
 341 34 l 25
 410 34 l 25
 410 171 l 25
 478 171 l 25
 478 34 l 25
 546 34 l 25
 546 171 l 25
 614 171 l 25
 614 34 l 25
 684 34 l 29
 684 -34 l 29
 614 -34 l 25
 614 -171 l 25
 546 -171 l 25
 546 -34 l 25
 478 -34 l 25
 478 -171 l 25
 410 -171 l 25
 410 -34 l 25
 341 -34 l 25
EndSplineSet
Validated: 1
EndChar

StartChar: h
Encoding: 104 104 26
Width: 546
Flags: W
HStem: -34 68<0 68 137 273 341 410 478 546> 321 20G<68 150.29> 321 20G<68 150.29>
VStem: 68 69<-239 -34 34 239> 410 68<-171 -34 34 171>
LayerCount: 2
Fore
SplineSet
273 -34 m 25x98
 137 -34 l 25
 137 -239 l 25
 273 -34 l 25x98
137 34 m 25
 273 34 l 25
 137 239 l 25
 137 34 l 25
341 -34 m 25
 137 -341 l 25
 68 -341 l 25
 68 -34 l 25
 0 -34 l 25
 0 34 l 25
 68 34 l 25
 68 341 l 25
 137 341 l 25xd8
 341 34 l 25
 410 34 l 25
 410 171 l 25
 478 171 l 25
 478 34 l 25
 546 34 l 25
 546 -34 l 25
 478 -34 l 25
 478 -171 l 25
 410 -171 l 25
 410 -34 l 25
 341 -34 l 25
EndSplineSet
Validated: 1
EndChar

StartChar: l
Encoding: 108 108 27
Width: 546
Flags: W
HStem: -34 68<0 68 137 273 341 410 478 546> 321 20G<259.645 341> 321 20G<259.645 341>
VStem: 273 68<-239 -34 34 239> 410 68<-171 -34 34 171>
LayerCount: 2
Fore
SplineSet
273 -34 m 25x98
 137 -34 l 25
 273 -239 l 25
 273 -34 l 25x98
137 34 m 25
 273 34 l 25
 273 239 l 25
 137 34 l 25
341 -34 m 25
 341 -341 l 25
 273 -341 l 25
 68 -34 l 25
 0 -34 l 25
 0 34 l 25
 68 34 l 25
 273 341 l 25
 341 341 l 25xd8
 341 34 l 25
 410 34 l 25
 410 171 l 25
 478 171 l 25
 478 34 l 25
 546 34 l 25
 546 -34 l 25
 478 -34 l 25
 478 -171 l 25
 410 -171 l 25
 410 -34 l 25
 341 -34 l 25
EndSplineSet
Validated: 1
EndChar

StartChar: v
Encoding: 118 118 28
Width: 546
Flags: W
HStem: -34 68<0 68 137 273 341 410 478 546> 321 20G<196.075 213.86> 321 20G<196.075 213.86>
VStem: 410 68<-171 -34 34 171>
LayerCount: 2
Fore
SplineSet
273 -34 m 25x90
 137 -34 l 25
 205 -188 l 25
 273 -34 l 25x90
137 34 m 25
 273 34 l 25
 205 188 l 25
 137 34 l 25
341 -34 m 29
 205 -341 l 25
 68 -34 l 25
 0 -34 l 25
 0 34 l 25
 68 34 l 25
 205 341 l 25xd0
 341 34 l 25
 410 34 l 25
 410 171 l 25
 478 171 l 25
 478 34 l 25
 546 34 l 25
 546 -34 l 25
 478 -34 l 25
 478 -171 l 25
 410 -171 l 25
 410 -34 l 25
 341 -34 l 29
EndSplineSet
Validated: 1
EndChar

StartChar: H
Encoding: 72 72 29
Width: 546
Flags: W
HStem: -34 68<0 68 341 410 478 546> 321 20G<68 150.29> 321 20G<68 150.29>
VStem: 410 68<-171 -34 34 171>
LayerCount: 2
Fore
SplineSet
341 -34 m 25xd0
 137 -341 l 25
 68 -341 l 25
 68 -34 l 25
 0 -34 l 25
 0 34 l 25
 68 34 l 25
 68 341 l 25
 137 341 l 25
 341 34 l 25
 410 34 l 25
 410 171 l 25
 478 171 l 25
 478 34 l 25
 546 34 l 25
 546 -34 l 25
 478 -34 l 25
 478 -171 l 25
 410 -171 l 25
 410 -34 l 25
 341 -34 l 25xd0
EndSplineSet
Validated: 1
EndChar

StartChar: L
Encoding: 76 76 30
Width: 546
Flags: W
HStem: -34 68<0 68 341 410 478 546> 321 20G<259.645 341> 321 20G<259.645 341>
VStem: 410 68<-171 -34 34 171>
LayerCount: 2
Fore
SplineSet
341 -34 m 25xd0
 341 -341 l 25
 273 -341 l 25
 68 -34 l 25
 0 -34 l 25
 0 34 l 25
 68 34 l 25
 273 341 l 25
 341 341 l 25
 341 34 l 25
 410 34 l 25
 410 171 l 25
 478 171 l 25
 478 34 l 25
 546 34 l 25
 546 -34 l 25
 478 -34 l 25
 478 -171 l 25
 410 -171 l 25
 410 -34 l 25
 341 -34 l 25xd0
EndSplineSet
Validated: 1
EndChar

StartChar: V
Encoding: 86 86 31
Width: 546
Flags: W
HStem: -34 68<0 68 341 410 478 546> 321 20G<196.075 213.86> 321 20G<196.075 213.86>
VStem: 410 68<-171 -34 34 171>
LayerCount: 2
Fore
SplineSet
341 -34 m 25xd0
 205 -341 l 25
 68 -34 l 25
 0 -34 l 25
 0 34 l 25
 68 34 l 25
 205 341 l 25
 341 34 l 25
 410 34 l 25
 410 171 l 25
 478 171 l 25
 478 34 l 25
 546 34 l 25
 546 -34 l 25
 478 -34 l 25
 478 -171 l 25
 410 -171 l 25
 410 -34 l 25
 341 -34 l 25xd0
EndSplineSet
Validated: 1
EndChar

StartChar: A
Encoding: 65 65 32
Width: 204
Flags: W
HStem: -34 68<0 68 205 273> 663 20G<68 205> 663 20G<68 205>
VStem: 68 137<-683 -34 34 683>
LayerCount: 2
Fore
SplineSet
0 34 m 25xd0
 68 34 l 25
 68 683 l 25
 205 683 l 25
 205 34 l 25
 273 34 l 25
 273 -34 l 25
 205 -34 l 29
 205 -683 l 29
 68 -683 l 25
 68 -34 l 25
 0 -34 l 25
 0 34 l 25xd0
EndSplineSet
Validated: 1
EndChar

StartChar: E
Encoding: 69 69 33
Width: 204
Flags: W
HStem: -34 68<0 68 205 273> 936 20G<68 205>
VStem: 68 137<-956 -34 34 956>
LayerCount: 2
Fore
SplineSet
0 34 m 25
 68 34 l 25
 68 956 l 25
 205 956 l 25
 205 34 l 25
 273 34 l 25
 273 -34 l 25
 205 -34 l 25
 205 -956 l 29
 68 -956 l 29
 68 -34 l 25
 0 -34 l 25
 0 34 l 25
EndSplineSet
Validated: 1
EndChar

StartChar: O
Encoding: 79 79 34
Width: 204
Flags: W
HStem: -34 68<0 68 205 273> 321 20G<68 205> 321 20G<68 205>
VStem: 68 137<-341 -34 34 341>
LayerCount: 2
Fore
SplineSet
0 34 m 25xd0
 68 34 l 25
 68 341 l 25
 205 341 l 25
 205 34 l 25
 273 34 l 25
 273 -34 l 25
 205 -34 l 25
 205 -341 l 29
 68 -341 l 29
 68 -34 l 25
 0 -34 l 25
 0 34 l 25xd0
EndSplineSet
Validated: 1
EndChar

StartChar: I
Encoding: 73 73 35
Width: 477
Flags: W
HStem: -343 21G<68 205> -34 68<0 68 205 273 410 478> 321 20G<68 205> 321 20G<68 205>
VStem: 68 137<-341 -34 34 341> 273 137<-171 -34 34 171>
LayerCount: 2
Fore
SplineSet
0 -34 m 25xec
 0 34 l 25
 68 34 l 25
 68 341 l 25
 205 341 l 25
 205 34 l 25
 273 34 l 25
 273 171 l 25
 410 171 l 25
 410 34 l 25
 478 34 l 25
 478 -34 l 25
 410 -34 l 25
 410 -171 l 25
 273 -171 l 25
 273 -34 l 25
 205 -34 l 25
 205 -341 l 25
 68 -343 l 25
 68 -34 l 25
 0 -34 l 25xec
EndSplineSet
Validated: 1
EndChar

StartChar: U
Encoding: 85 85 36
Width: 682
Flags: W
HStem: -171 342<273 410 478 614> -34 68<0 68 205 273 410 478 614 683> 663 20G<68 205> 663 20G<68 205>
VStem: 68 137<-683 -34 34 683> 273 137<-171 -34 34 171> 478 136<-171 -34 34 171>
LayerCount: 2
Fore
SplineSet
0 34 m 25x4e
 68 34 l 25
 68 683 l 25
 205 683 l 25
 205 34 l 25
 273 34 l 25x6e
 273 171 l 25
 410 171 l 25x8e
 410 34 l 25
 478 34 l 25x4e
 478 171 l 25
 614 171 l 25x8e
 614 34 l 25
 683 34 l 25
 683 -34 l 25
 614 -34 l 25x4e
 614 -171 l 25
 478 -171 l 25x8e
 478 -34 l 25
 410 -34 l 25x4e
 410 -171 l 25
 273 -171 l 25x8e
 273 -34 l 25
 205 -34 l 25
 205 -683 l 25
 68 -683 l 25
 68 -34 l 25
 0 -34 l 25
 0 34 l 25x4e
EndSplineSet
Validated: 1
EndChar

StartChar: W
Encoding: 87 87 37
Width: 682
Flags: W
HStem: -171 342<273 410 478 614> -34 68<0 68 205 273 410 478 614 683> 663 20G<68 205> 663 20G<68 205>
VStem: 68 137<-683 -34 34 683> 273 137<-171 -34 34 171> 478 136<-171 -34 34 171>
LayerCount: 2
Fore
SplineSet
0 34 m 25x4e
 68 34 l 25
 68 683 l 25
 205 683 l 25
 205 34 l 25
 273 34 l 25x6e
 273 171 l 25
 410 171 l 25x8e
 410 34 l 25
 478 34 l 25x4e
 478 171 l 25
 614 171 l 25x8e
 614 34 l 25
 683 34 l 25
 683 -34 l 25
 614 -34 l 25x4e
 614 -171 l 25
 478 -171 l 25x8e
 478 -34 l 25
 410 -34 l 25x4e
 410 -171 l 25
 273 -171 l 25x8e
 273 -34 l 25
 205 -34 l 25
 205 -683 l 25
 68 -683 l 25
 68 -34 l 25
 0 -34 l 25
 0 34 l 25x4e
EndSplineSet
Validated: 1
EndChar

StartChar: f
Encoding: 102 102 38
Width: 682
Flags: W
HStem: -34 68<0 68 137 273 341 410 478 546 614 682> 663 20G<200.778 209.191> 663 20G<200.778 209.191>
VStem: 410 68<-171 -34 34 171> 546 68<-171 -34 34 171>
LayerCount: 2
Fore
SplineSet
273 -34 m 25x98
 137 -34 l 25
 205 -358 l 25
 273 -34 l 25x98
137 34 m 25
 273 34 l 25
 205 358 l 25
 137 34 l 25
341 -34 m 25
 205 -683 l 25
 68 -34 l 25
 0 -34 l 25
 0 34 l 25
 68 34 l 25
 205 683 l 25xd8
 341 34 l 25
 410 34 l 25
 410 171 l 25
 478 171 l 25
 478 34 l 25
 546 34 l 25
 546 171 l 25
 614 171 l 25
 614 34 l 25
 682 34 l 25
 682 -34 l 25
 614 -34 l 25
 614 -171 l 25
 546 -171 l 25
 546 -34 l 25
 478 -34 l 25
 478 -171 l 25
 410 -171 l 25
 410 -34 l 25
 341 -34 l 25
EndSplineSet
Validated: 1
EndChar

StartChar: F
Encoding: 70 70 39
Width: 682
Flags: W
HStem: -34 68<0 68 341 410 478 546 614 682> 663 20G<200.778 209.191> 663 20G<200.778 209.191>
VStem: 410 68<-171 -34 34 171> 546 68<-171 -34 34 171>
LayerCount: 2
Fore
SplineSet
341 -34 m 25xd8
 205 -683 l 25
 68 -34 l 25
 0 -34 l 25
 0 34 l 25
 68 34 l 25
 205 683 l 25
 341 34 l 25
 410 34 l 25
 410 171 l 25
 478 171 l 25
 478 34 l 25
 546 34 l 25
 546 171 l 25
 614 171 l 25
 614 34 l 25
 682 34 l 25
 682 -34 l 25
 614 -34 l 25
 614 -171 l 25
 546 -171 l 25
 546 -34 l 25
 478 -34 l 25
 478 -171 l 25
 410 -171 l 25
 410 -34 l 25
 341 -34 l 25xd8
EndSplineSet
Validated: 1
EndChar

StartChar: k
Encoding: 107 107 40
Width: 409
Flags: W
HStem: -34 68<0 68 137 273 341 410> 497 21G<212.745 237.35> 497 21G<212.745 237.35> 663 20G<134.874 156.71> 663 20G<134.874 156.71 334.366 341>
VStem: 273 68<-614 -34 34 614>
LayerCount: 2
Fore
SplineSet
273 -34 m 29x84
 137 -34 l 29
 186 -548 l 29
 230 -497 l 29
 273 -614 l 29
 273 -34 l 29x84
273 34 m 29
 273 614 l 29
 230 497 l 29xc4
 186 548 l 29
 137 34 l 29
 273 34 l 29
68 -34 m 29
 0 -34 l 29
 0 34 l 29
 68 34 l 29
 137 683 l 29x94
 205 614 l 29
 341 1024 l 29
 341 34 l 29
 410 34 l 29
 410 -34 l 29
 341 -34 l 29
 341 -1022 l 29
 205 -614 l 29
 137 -683 l 29
 68 -34 l 29
EndSplineSet
Validated: 1
EndChar

StartChar: K
Encoding: 75 75 41
Width: 409
Flags: W
HStem: -34 68<0 68 341 410> 663 20G<134.874 156.71> 663 20G<134.874 156.71 334.366 341>
VStem: 68 273<-168.842 -34 34 168.842>
LayerCount: 2
Fore
SplineSet
68 -34 m 25xd0
 0 -34 l 25
 0 34 l 25
 68 34 l 25
 137 683 l 25
 205 614 l 25
 341 1024 l 25
 341 34 l 25
 410 34 l 25
 410 -34 l 29
 341 -34 l 25
 341 -1022 l 25
 205 -614 l 25
 137 -683 l 25
 68 -34 l 25xd0
EndSplineSet
Validated: 1
EndChar

StartChar: t_h
Encoding: 256 -1 42
Width: 682
Flags: W
HStem: -34 68<0 68 137 273 341 410 478 546 614 682> 663 20G<266.683 341> 663 20G<266.683 341>
VStem: 273 68<-683 -637.614 -461 -34 34 461 637.614 683> 410 68<-171 -34 34 171> 546 68<-171 -34 34 171>
LayerCount: 2
Fore
SplineSet
273 -34 m 25x9c
 137 -34 l 25
 273 -461 l 25
 273 -34 l 25x9c
137 34 m 25
 273 34 l 25
 273 461 l 25
 137 34 l 25
341 -34 m 25
 341 -683 l 25
 273 -683 l 25
 68 -34 l 25
 0 -34 l 25
 0 34 l 25
 68 34 l 25
 273 683 l 25
 341 683 l 25xdc
 341 34 l 25
 410 34 l 25
 410 171 l 25
 478 171 l 25
 478 34 l 25
 546 34 l 25
 546 171 l 25
 614 171 l 25
 614 34 l 25
 682 34 l 25
 682 -34 l 25
 614 -34 l 25
 614 -171 l 25
 546 -171 l 25
 546 -34 l 25
 478 -34 l 25
 478 -171 l 25
 410 -171 l 25
 410 -34 l 25
 341 -34 l 25
EndSplineSet
Validated: 1
Ligature2: "t_h ligature-1" t h
EndChar

StartChar: T_H
Encoding: 257 -1 43
Width: 682
Flags: W
HStem: -34 68<0 68 341 410 478 546 614 682> 663 20G<266.683 341> 663 20G<266.683 341>
VStem: 273 68<-683 -637.614 637.614 683> 410 68<-171 -34 34 171> 546 68<-171 -34 34 171>
LayerCount: 2
Fore
SplineSet
341 -34 m 25xdc
 341 -683 l 25
 273 -683 l 25
 68 -34 l 25
 0 -34 l 25
 0 34 l 25
 68 34 l 25
 273 683 l 25
 341 683 l 25
 341 34 l 25
 410 34 l 25
 410 171 l 25
 478 171 l 25
 478 34 l 25
 546 34 l 25
 546 171 l 25
 614 171 l 25
 614 34 l 25
 682 34 l 25
 682 -34 l 25
 614 -34 l 25
 614 -171 l 25
 546 -171 l 25
 546 -34 l 25
 478 -34 l 25
 478 -171 l 25
 410 -171 l 25
 410 -34 l 25
 341 -34 l 25xdc
EndSplineSet
Validated: 1
Ligature2: "T_H-1" T H
EndChar

StartChar: s_h
Encoding: 258 -1 44
Width: 686
Flags: W
HStem: -34 68<0 68 137 273 341 410 478 546 614 682> 663 20G<68 143.287> 663 20G<68 143.287>
VStem: 68 69<-683 -637.392 -444 -34 34 444 637.392 683> 410 68<-171 -34 34 171> 546 68<-171 -34 34 171>
LayerCount: 2
Fore
SplineSet
273 -34 m 25x9c
 137 -34 l 25
 137 -444 l 25
 273 -34 l 25x9c
137 34 m 25
 273 34 l 25
 137 444 l 25
 137 34 l 25
341 -34 m 25
 137 -683 l 25
 68 -683 l 25
 68 -34 l 25
 0 -34 l 25
 0 34 l 25
 68 34 l 25
 68 683 l 25
 137 683 l 25xdc
 341 34 l 25
 410 34 l 25
 410 171 l 25
 478 171 l 25
 478 34 l 25
 546 34 l 25
 546 171 l 25
 614 171 l 25
 614 34 l 25
 682 34 l 25
 682 -34 l 25
 614 -34 l 25
 614 -171 l 25
 546 -171 l 25
 546 -34 l 25
 478 -34 l 25
 478 -171 l 25
 410 -171 l 25
 410 -34 l 25
 341 -34 l 25
EndSplineSet
Validated: 1
Ligature2: "s_h-1" s h
EndChar

StartChar: S_H
Encoding: 259 -1 45
Width: 682
Flags: W
HStem: -34 68<0 68 341 410 478 546 614 682> 663 20G<68 143.287> 663 20G<68 143.287>
VStem: 68 69<-683 -637.392 637.392 683> 410 68<-171 -34 34 171> 546 68<-171 -34 34 171>
LayerCount: 2
Fore
SplineSet
341 -34 m 25xdc
 137 -683 l 25
 68 -683 l 25
 68 -34 l 25
 0 -34 l 25
 0 34 l 25
 68 34 l 25
 68 683 l 25
 137 683 l 25
 341 34 l 25
 410 34 l 25
 410 171 l 25
 478 171 l 25
 478 34 l 25
 546 34 l 25
 546 171 l 25
 614 171 l 25
 614 34 l 25
 682 34 l 25
 682 -34 l 25
 614 -34 l 25
 614 -171 l 25
 546 -171 l 25
 546 -34 l 25
 478 -34 l 25
 478 -171 l 25
 410 -171 l 25
 410 -34 l 25
 341 -34 l 25xdc
EndSplineSet
Validated: 1
Ligature2: "S_H-1" S H
EndChar

StartChar: g
Encoding: 103 103 46
Width: 409
Flags: W
HStem: -34 68<0 68 137 273 341 410> 390 20G<133.33 156.71 333.047 341> 390 20G<133.33 156.71 333.047 341>
VStem: 273 68<-341 -34 34 341>
LayerCount: 2
Fore
SplineSet
273 -34 m 25x90
 137 -34 l 25
 186 -273 l 25
 230 -225 l 25
 273 -341 l 25
 273 -34 l 25x90
273 34 m 25
 273 341 l 25
 230 224 l 25
 186 273 l 25
 137 34 l 25
 273 34 l 25
68 -34 m 25
 0 -34 l 25
 0 34 l 25
 68 34 l 25
 137 410 l 25xd0
 205 341 l 25
 341 683 l 25
 341 34 l 25
 410 34 l 25
 410 -34 l 25
 341 -34 l 25
 341 -683 l 29
 205 -341 l 25
 137 -411 l 25
 68 -34 l 25
EndSplineSet
Validated: 1
EndChar

StartChar: G
Encoding: 71 71 47
Width: 409
Flags: W
HStem: -34 68<0 68 341 410> 390 20G<133.33 156.71 333.047 341> 390 20G<133.33 156.71 333.047 341>
VStem: 68 273<-112.329 -34 34 112.121>
LayerCount: 2
Fore
SplineSet
68 -34 m 25xd0
 0 -34 l 25
 0 34 l 25
 68 34 l 25
 137 410 l 25
 205 341 l 25
 341 683 l 25
 341 34 l 25
 410 34 l 25
 410 -36 l 25
 341 -34 l 25
 341 -681 l 25
 205 -341 l 25
 137 -411 l 25
 68 -34 l 25xd0
EndSplineSet
Validated: 1
EndChar

StartChar: y
Encoding: 121 121 48
Width: 409
Flags: W
HStem: -34 68<0 68 137 273 341 410> 321 20G<327.667 341> 321 20G<327.667 341>
VStem: 273 68<-142 -34 34 142>
LayerCount: 2
Fore
SplineSet
171 -256 m 1049x90
273 -34 m 25
 137 -34 l 25
 186 -142 l 25
 232 -87 l 25
 273 -142 l 25
 273 -34 l 25
273 34 m 25
 273 142 l 25
 232 87 l 25
 186 142 l 25
 137 34 l 25
 273 34 l 25
68 -34 m 25
 0 -34 l 25
 0 34 l 25
 68 34 l 25
 171 256 l 25
 239 188 l 25
 341 341 l 25xd0
 341 34 l 25
 410 34 l 25
 410 -36 l 25
 341 -34 l 25
 341 -341 l 25
 239 -188 l 25
 171 -256 l 25
 68 -34 l 25
EndSplineSet
Validated: 1
EndChar

StartChar: Y
Encoding: 89 89 49
Width: 409
Flags: W
HStem: -34 68<0 68 341 410> 321 20G<327.667 341> 321 20G<327.667 341>
VStem: 0 410<-34 34>
LayerCount: 2
Fore
SplineSet
171 -256 m 1049x90
68 -34 m 25
 0 -34 l 25
 0 34 l 25
 68 34 l 25
 171 256 l 25
 239 188 l 25
 341 341 l 25xd0
 341 34 l 25
 410 34 l 25
 410 -34 l 29
 341 -34 l 25
 341 -341 l 25
 239 -188 l 25
 171 -256 l 25
 68 -34 l 25
EndSplineSet
Validated: 1
EndChar

StartChar: c_h
Encoding: 260 -1 50
Width: 680
Flags: W
HStem: -34 68<0 68 137 273 341 410 478 546 614 682> 390 20G<133.33 156.71 333.047 341> 390 20G<133.33 156.71 333.047 341>
VStem: 273 68<-341 -34 34 341> 410 68<-171 -34 34 171> 546 68<-171 -34 34 171>
LayerCount: 2
Fore
SplineSet
273 -34 m 25x9c
 137 -34 l 25
 186 -273 l 25
 230 -225 l 25
 273 -341 l 25
 273 -34 l 25x9c
273 34 m 25
 273 341 l 25
 230 224 l 25
 186 273 l 25
 137 34 l 25
 273 34 l 25
341 -34 m 25
 341 -683 l 25
 205 -341 l 25
 137 -411 l 25
 68 -34 l 25
 0 -34 l 25
 0 34 l 25
 68 34 l 25
 137 410 l 25xdc
 205 341 l 25
 341 683 l 25
 341 34 l 25
 410 34 l 25
 410 171 l 25
 478 171 l 25
 478 34 l 25
 546 34 l 25
 546 171 l 25
 614 171 l 25
 614 34 l 1
 682 34 l 25
 682 -34 l 1
 614 -34 l 25
 614 -171 l 25
 546 -171 l 25
 546 -34 l 25
 478 -34 l 25
 478 -171 l 25
 410 -171 l 25
 410 -34 l 25
 341 -34 l 25
EndSplineSet
Validated: 1
Ligature2: "c_h-1" c h
EndChar

StartChar: C_H
Encoding: 261 -1 51
Width: 680
Flags: W
HStem: -34 68<0 68 341 410 478 546 614 682> 390 20G<133.33 156.71 333.047 341> 390 20G<133.33 156.71 333.047 341>
VStem: 68 273<-112.329 -34 34 112.121> 410 68<-171 -34 34 171> 546 68<-171 -34 34 171>
LayerCount: 2
Fore
SplineSet
341 -34 m 25xdc
 341 -683 l 25
 205 -341 l 25
 137 -411 l 25
 68 -34 l 25
 0 -34 l 25
 0 34 l 25
 68 34 l 25
 137 410 l 25
 205 341 l 25
 341 683 l 25
 341 34 l 25
 410 34 l 25
 410 171 l 25
 478 171 l 25
 478 34 l 25
 546 34 l 25
 546 171 l 25
 614 171 l 25
 614 34 l 1
 682 34 l 25
 682 -34 l 1
 614 -34 l 25
 614 -171 l 25
 546 -171 l 25
 546 -34 l 25
 478 -34 l 25
 478 -171 l 25
 410 -171 l 25
 410 -34 l 25
 341 -34 l 25xdc
EndSplineSet
Validated: 1
Ligature2: "C_H-1" C H
EndChar

StartChar: j
Encoding: 106 106 52
Width: 546
Flags: W
HStem: -34 68<0 68 137 273 341 410 478 546> 321 20G<327.667 341> 321 20G<327.667 341>
VStem: 273 68<-142 -34 34 142> 410 68<-171 -34 34 171>
LayerCount: 2
Fore
SplineSet
171 -256 m 1049x98
273 -34 m 25
 137 -34 l 25
 186 -142 l 25
 232 -87 l 25
 273 -142 l 25
 273 -34 l 25
273 34 m 25
 273 142 l 25
 232 87 l 25
 186 142 l 25
 137 34 l 25
 273 34 l 25
341 -34 m 25
 341 -341 l 25
 239 -188 l 25
 171 -256 l 25
 68 -34 l 25
 0 -34 l 25
 0 34 l 25
 68 34 l 25
 171 256 l 25
 239 188 l 25
 341 341 l 25xd8
 341 34 l 25
 410 34 l 25
 410 171 l 25
 478 171 l 25
 478 34 l 25
 546 34 l 25
 546 -34 l 25
 478 -34 l 25
 478 -171 l 25
 410 -171 l 25
 410 -34 l 25
 341 -34 l 25
EndSplineSet
Validated: 1
EndChar

StartChar: J
Encoding: 74 74 53
Width: 546
Flags: W
HStem: -34 68<0 68 341 410 478 546> 321 20G<327.667 341> 321 20G<327.667 341>
VStem: 410 68<-171 -34 34 171>
LayerCount: 2
Fore
SplineSet
171 -256 m 1049x90
341 -34 m 25
 341 -341 l 25
 239 -188 l 25
 171 -256 l 25
 68 -34 l 25
 0 -34 l 25
 0 34 l 25
 68 34 l 25
 171 256 l 25
 239 188 l 25
 341 341 l 25xd0
 341 34 l 25
 410 34 l 25
 410 171 l 25
 478 171 l 25
 478 34 l 25
 546 34 l 25
 546 -34 l 25
 478 -34 l 25
 478 -171 l 25
 410 -171 l 25
 410 -34 l 25
 341 -34 l 25
EndSplineSet
Validated: 1
EndChar

StartChar: q
Encoding: 113 113 54
Width: 409
Flags: W
HStem: -34 68<0 68 137 273 341 410> 497 21G<212.745 237.35> 497 21G<212.745 237.35> 663 20G<134.874 156.71> 663 20G<134.874 156.71 334.366 341>
VStem: 273 68<-614 -34 34 614>
LayerCount: 2
Fore
SplineSet
273 -34 m 29x84
 137 -34 l 29
 186 -548 l 29
 230 -497 l 29
 273 -614 l 29
 273 -34 l 29x84
273 34 m 29
 273 614 l 29
 230 497 l 29xc4
 186 548 l 29
 137 34 l 29
 273 34 l 29
68 -34 m 29
 0 -34 l 29
 0 34 l 29
 68 34 l 29
 137 683 l 29x94
 205 614 l 29
 341 1024 l 29
 341 34 l 29
 410 34 l 29
 410 -34 l 29
 341 -34 l 29
 341 -1022 l 29
 205 -614 l 29
 137 -683 l 29
 68 -34 l 29
EndSplineSet
Validated: 1
EndChar

StartChar: Q
Encoding: 81 81 55
Width: 409
Flags: W
HStem: -34 68<0 68 341 410> 663 20G<134.874 156.71> 663 20G<134.874 156.71 334.366 341>
VStem: 68 273<-168.842 -34 34 168.842>
LayerCount: 2
Fore
SplineSet
68 -34 m 25xd0
 0 -34 l 25
 0 34 l 25
 68 34 l 25
 137 683 l 25
 205 614 l 25
 341 1024 l 25
 341 34 l 25
 410 34 l 25
 410 -34 l 29
 341 -34 l 25
 341 -1022 l 25
 205 -614 l 25
 137 -683 l 25
 68 -34 l 25xd0
EndSplineSet
Validated: 1
EndChar

StartChar: c
Encoding: 99 99 56
Width: 409
Flags: W
HStem: -34 68<0 68 137 273 341 410> 497 21G<212.745 237.35> 497 21G<212.745 237.35> 663 20G<134.874 156.71> 663 20G<134.874 156.71 334.366 341>
VStem: 273 68<-614 -34 34 614>
LayerCount: 2
Fore
SplineSet
273 -34 m 25x84
 137 -34 l 25
 186 -548 l 25
 230 -497 l 25
 273 -614 l 25
 273 -34 l 25x84
273 34 m 25
 273 614 l 25
 230 497 l 25xc4
 186 548 l 25
 137 34 l 25
 273 34 l 25
68 -34 m 25
 0 -34 l 25
 0 34 l 25
 68 34 l 25
 137 683 l 25x94
 205 614 l 25
 341 1024 l 25
 341 34 l 25
 410 34 l 25
 410 -34 l 29
 341 -34 l 25
 341 -1022 l 25
 205 -614 l 25
 137 -683 l 25
 68 -34 l 25
EndSplineSet
Validated: 1
EndChar

StartChar: C
Encoding: 67 67 57
Width: 409
Flags: W
HStem: -34 68<0 68 341 410> 663 20G<134.874 156.71> 663 20G<134.874 156.71 334.366 341>
VStem: 68 273<-168.842 -34 34 168.842>
LayerCount: 2
Fore
SplineSet
68 -34 m 25xd0
 0 -34 l 25
 0 34 l 25
 68 34 l 25
 137 683 l 25
 205 614 l 25
 341 1024 l 25
 341 34 l 25
 410 34 l 25
 410 -34 l 29
 341 -34 l 25
 341 -1022 l 25
 205 -614 l 25
 137 -683 l 25
 68 -34 l 25xd0
EndSplineSet
Validated: 1
EndChar

StartChar: bar
Encoding: 124 124 58
Width: 341
Flags: W
HStem: -1024 68<68 137 205 273> -34 68<0 137 205 341> 956 68<68 137 205 273>
VStem: 68 205<-1024 -956 956 1024> 137 68<-956 -34 34 956>
CounterMasks: 1 e0
LayerCount: 2
Fore
SplineSet
0 34 m 25xe8
 137 34 l 25
 137 956 l 25xe8
 68 956 l 25
 68 1024 l 25
 273 1024 l 25
 273 956 l 25xf0
 205 956 l 25
 205 34 l 25
 341 34 l 25
 341 -34 l 25
 205 -34 l 25
 205 -956 l 25xe8
 273 -956 l 25
 273 -1024 l 25
 68 -1024 l 25
 68 -956 l 25xf0
 137 -956 l 25
 137 -34 l 25
 0 -34 l 25
 0 34 l 25xe8
EndSplineSet
Validated: 1
EndChar

StartChar: period
Encoding: 46 46 59
Width: 546
Flags: W
HStem: -34 68<0 410> 663 20G<410 478> 663 20G<410 478>
VStem: 410 68<-683 -34 34 683>
LayerCount: 2
Fore
SplineSet
0 -34 m 25xd0
 0 34 l 25
 410 34 l 25
 410 683 l 25
 478 683 l 25
 478 -683 l 29
 410 -683 l 29
 410 -34 l 25
 0 -34 l 25xd0
EndSplineSet
Validated: 1
EndChar

StartChar: hyphen
Encoding: 45 45 60
Width: 477
Flags: W
HStem: -34 68<0 341> 321 20G<341 410> 321 20G<341 410>
VStem: 341 69<-341 -34 34 341>
LayerCount: 2
Fore
SplineSet
0 -34 m 25xd0
 0 34 l 25
 341 34 l 25
 341 341 l 25
 410 341 l 25
 410 -341 l 29
 341 -341 l 29
 341 -34 l 25
 0 -34 l 25xd0
EndSplineSet
Validated: 1
EndChar

StartChar: comma
Encoding: 44 44 61
Width: 409
Flags: W
HStem: -34 68<0 410>
VStem: 0 410<-34 34>
LayerCount: 2
Fore
SplineSet
410 -34 m 25
 0 -34 l 25
 0 34 l 25
 410 34 l 25
 410 -34 l 25
EndSplineSet
Validated: 1
EndChar

StartChar: question
Encoding: 63 63 62
Width: 750
Flags: W
HStem: -34 68<0 68 137 273 341 410 478 614 683 751> 341 322G<68 150.29 614 683> 341 322G<68 150.29 614 683>
VStem: 68 69<-239 -34 34 239> 410 68<-171 -34 34 171> 614 69<-683 -34 34 683>
LayerCount: 2
Fore
SplineSet
273 -34 m 25x9c
 137 -34 l 25
 137 -239 l 25
 273 -34 l 25x9c
137 34 m 25
 273 34 l 25
 137 239 l 25
 137 34 l 25
478 34 m 13
 614 34 l 25
 614 683 l 25
 683 683 l 25
 683 34 l 25
 751 34 l 25
 751 -34 l 25
 683 -34 l 25
 683 -683 l 25
 614 -683 l 25
 614 -34 l 25
 478 -34 l 25
 478 -171 l 25
 410 -171 l 25
 410 -34 l 25
 341 -34 l 25
 137 -341 l 25
 68 -341 l 25
 68 -34 l 25
 0 -34 l 25
 0 34 l 25
 68 34 l 25
 68 341 l 25
 137 341 l 25xdc
 341 34 l 25
 410 34 l 25
 410 171 l 25
 478 171 l 17
 478 34 l 13
EndSplineSet
Validated: 1
EndChar

StartChar: zero
Encoding: 48 48 63
Width: 204
Flags: W
HStem: -51 102<51 154>
VStem: 51 103<-51 51>
LayerCount: 2
Fore
SplineSet
51 -51 m 29
 51 51 l 29
 154 51 l 25
 154 -51 l 25
 51 -51 l 29
EndSplineSet
Validated: 1
EndChar

StartChar: two
Encoding: 50 50 64
Width: 341
Flags: W
HStem: -273 21G<312.464 341> 253 20G<312.464 341>
VStem: 0 341
LayerCount: 2
Fore
SplineSet
0 34 m 25
 341 273 l 25
 341 207 l 25
 51 0 l 25
 341 -205 l 25
 341 -273 l 25
 0 -34 l 25
 0 34 l 25
EndSplineSet
Validated: 1
EndChar

StartChar: three
Encoding: 51 51 65
Width: 341
Flags: W
HStem: -273 21G<312.464 341> -34 68<102 341> 253 20G<312.464 341>
VStem: 0 341<-34 34>
LayerCount: 2
Fore
SplineSet
341 -34 m 25
 102 -34 l 25
 341 -205 l 25
 341 -273 l 25
 0 -34 l 25
 0 34 l 25
 341 273 l 25
 341 206 l 25
 102 34 l 25
 341 34 l 25
 341 -34 l 25
EndSplineSet
Validated: 1
EndChar

StartChar: four
Encoding: 52 52 66
Width: 546
Flags: W
HStem: -273 21G<0 24.5946 521.405 546> 253 20G<0 24.5946 521.405 546>
VStem: 0 546
LayerCount: 2
Fore
SplineSet
222 0 m 25
 0 206 l 25
 0 273 l 25
 273 51 l 1
 546 273 l 25
 546 206 l 1
 324 0 l 25
 546 -205 l 1
 546 -273 l 25
 273 -51 l 1
 0 -273 l 25
 0 -205 l 25
 222 0 l 25
EndSplineSet
Validated: 1
EndChar

StartChar: five
Encoding: 53 53 67
Width: 546
Flags: W
HStem: -273 21G<137 205 517.464 546> -34 68<0 137> 253 20G<137 205 517.464 546>
VStem: 137 68<-273 -34 34 273>
LayerCount: 2
Fore
SplineSet
546 -273 m 25
 205 -34 l 25
 205 -273 l 25
 137 -273 l 25
 137 -34 l 25
 0 -34 l 25
 0 34 l 25
 137 34 l 25
 137 273 l 25
 205 273 l 25
 205 34 l 25
 546 273 l 25
 546 207 l 25
 256 0 l 25
 546 -205 l 25
 546 -273 l 25
EndSplineSet
Validated: 1
EndChar

StartChar: six
Encoding: 54 54 68
Width: 749
Flags: W
HStem: -273 21G<0 28.5356 341 410 721.548 750> 253 20G<0 28.5356 341 410 721.548 749.701>
VStem: 341 69<-273 -34 34 273>
LayerCount: 2
Fore
SplineSet
410 -34 m 25
 410 -273 l 25
 341 -273 l 25
 341 -34 l 25
 0 -273 l 25
 0 -205 l 25
 290 0 l 25
 0 207 l 25
 0 273 l 25
 341 34 l 25
 341 273 l 25
 410 273 l 25
 410 34 l 25
 750 273 l 25
 749 206 l 25
 461 0 l 25
 750 -205 l 25
 750 -273 l 25
 410 -34 l 25
EndSplineSet
Validated: 1
EndChar

StartChar: seven
Encoding: 55 55 69
Width: 341
Flags: W
HStem: -273 21G<0 28.5356> 253 20G<0 28.5356>
VStem: 0 341
LayerCount: 2
Fore
SplineSet
0 102 m 25
 137 0 l 25
 0 -101 l 25
 0 -34 l 25
 51 0 l 25
 0 34 l 25
 0 102 l 25
341 34 m 25
 341 -34 l 25
 0 -273 l 25
 0 -205 l 25
 290 0 l 25
 0 207 l 25
 0 273 l 25
 341 34 l 25
EndSplineSet
Validated: 1
EndChar

StartChar: nine
Encoding: 57 57 70
Width: 341
Flags: W
HStem: -273 21G<0 28.5356> 253 20G<0 28.5356>
VStem: 0 341
LayerCount: 2
Fore
SplineSet
341 34 m 25
 341 -34 l 25
 0 -273 l 25
 0 -205 l 25
 290 0 l 25
 0 207 l 25
 0 273 l 25
 341 34 l 25
EndSplineSet
Validated: 1
EndChar

StartChar: eight
Encoding: 56 56 71
Width: 341
Flags: W
HStem: -273 21G<0 28.5356> -34 68<0 242> 253 20G<0 28.5356>
VStem: 0 341<-273 -205>
LayerCount: 2
Fore
SplineSet
0 -205 m 25
 242 -34 l 25
 0 -34 l 25
 0 34 l 25
 242 34 l 25
 0 207 l 25
 0 273 l 25
 341 34 l 25
 341 -34 l 25
 0 -273 l 25
 0 -205 l 25
EndSplineSet
Validated: 1
EndChar

StartChar: one
Encoding: 49 49 72
Width: 477
Flags: W
HStem: -34 68<68 410>
VStem: 68 342<-34 34>
LayerCount: 2
Fore
SplineSet
68 34 m 25
 410 34 l 25
 410 -34 l 29
 68 -34 l 25
 68 34 l 25
EndSplineSet
Validated: 1
EndChar

StartChar: x
Encoding: 120 120 74
Width: 819
Flags: W
HStem: -34 68<0 68 137 273 341 478 546 683 751 819> 497 21G<212.745 237.35> 497 21G<212.745 237.35> 663 20G<134.874 156.71> 1004 20G<134.874 156.71 334.366 341 478 550.141>
VStem: 273 68<-614 -34 34 614> 478 68<-1024 -954.768 -683 -34 34 683 954.768 1024>
LayerCount: 2
Fore
SplineSet
683 -34 m 25x9e
 546 -34 l 25
 546 -683 l 25
 683 -34 l 25x9e
546 34 m 25
 683 34 l 25
 546 683 l 25
 546 34 l 25
478 34 m 25
 478 1024 l 25
 546 1024 l 25
 751 34 l 25
 819 34 l 25
 819 -34 l 25
 751 -34 l 25
 546 -1024 l 25
 478 -1024 l 17
 478 -96 l 4
 478 -34 l 9
 341 -34 l 25
 341 -1022 l 25
 205 -614 l 25
 137 -683 l 25
 68 -34 l 25
 0 -34 l 25
 0 34 l 25
 68 34 l 25
 137 683 l 25
 205 614 l 25
 341 1024 l 25
 341 34 l 25
 478 34 l 25
273 -34 m 25
 137 -34 l 25
 186 -548 l 25
 230 -497 l 25
 273 -614 l 25
 273 -34 l 25
273 34 m 25
 273 614 l 25
 230 497 l 25xde
 186 548 l 25
 137 34 l 25
 273 34 l 25
EndSplineSet
Validated: 1
EndChar

StartChar: X
Encoding: 88 88 75
Width: 819
Flags: W
HStem: -34 68<0 68 341 478 751 819> 663 20G<134.874 156.71> 1004 20G<134.874 156.71 334.366 341 478 550.141>
VStem: 68 273<-168.842 -34 34 168.842> 478 68<-1024 -954.768 954.768 1024>
LayerCount: 2
Fore
SplineSet
478 34 m 25
 478 1024 l 25
 546 1024 l 25
 751 34 l 25
 819 34 l 25
 819 -34 l 25
 751 -34 l 25
 546 -1024 l 25
 478 -1024 l 17
 478 -96 l 0
 478 -34 l 9
 341 -34 l 25
 341 -1022 l 25
 205 -614 l 25
 137 -683 l 25
 68 -34 l 25
 0 -34 l 25
 0 34 l 25
 68 34 l 25
 137 683 l 25
 205 614 l 25
 341 1024 l 25
 341 34 l 25
 478 34 l 25
EndSplineSet
Validated: 1
EndChar

StartChar: semicolon
Encoding: 59 59 76
Width: 477
Flags: W
HStem: -273 21G<341 410> -102 68<68 341> 34 68<68 341> 253 20G<341 410>
VStem: 341 69<-273 -102 -34 34 102 273>
LayerCount: 2
Fore
SplineSet
68 34 m 29
 68 102 l 29
 341 102 l 25
 341 273 l 25
 410 273 l 25
 410 -273 l 25
 341 -273 l 25
 341 -102 l 25
 68 -102 l 25
 68 -34 l 25
 341 -34 l 25
 341 34 l 25
 68 34 l 29
EndSplineSet
Validated: 1
EndChar

StartChar: colon
Encoding: 58 58 77
Width: 477
Flags: W
HStem: -102 68<68 410> 34 68<68 410>
VStem: 68 342<-102 -34 34 102>
LayerCount: 2
Fore
SplineSet
68 -102 m 25
 68 -34 l 25
 410 -34 l 25
 410 -102 l 25
 68 -102 l 25
68 102 m 29
 410 102 l 25
 410 34 l 25
 68 34 l 25
 68 102 l 29
EndSplineSet
Validated: 1
EndChar

StartChar: exclam
Encoding: 33 33 78
Width: 477
Flags: W
HStem: 1004 20G<205 273>
VStem: 68 69<-171 171> 205 68<-1024 1024> 341 69<-171 171>
CounterMasks: 1 70
LayerCount: 2
Fore
SplineSet
68 -171 m 25
 68 171 l 25
 137 171 l 25
 137 -171 l 25
 68 -171 l 25
341 -171 m 25
 341 171 l 25
 410 171 l 25
 410 -171 l 25
 341 -171 l 25
205 -1024 m 29
 205 1024 l 25
 273 1024 l 25
 273 -1024 l 29
 205 -1024 l 29
EndSplineSet
Validated: 1
EndChar

StartChar: slash
Encoding: 47 47 79
Width: 477
Flags: W
HStem: 936 20G<338.144 410>
VStem: 68 342
LayerCount: 2
Fore
SplineSet
68 -956 m 29
 341 956 l 25
 410 956 l 25
 137 -956 l 29
 68 -956 l 29
EndSplineSet
Validated: 1
EndChar

StartChar: underscore
Encoding: 95 95 80
Width: 477
Flags: W
HStem: -683 69<0 478> 614 69<0 478>
VStem: 0 478<-683 -614 614 683>
LayerCount: 2
Fore
SplineSet
0 -614 m 25
 478 -614 l 25
 478 -683 l 29
 0 -683 l 25
 0 -614 l 25
0 614 m 25
 0 683 l 25
 478 683 l 25
 478 614 l 25
 0 614 l 25
EndSplineSet
Validated: 1
EndChar

StartChar: ampersand
Encoding: 38 38 81
Width: 1024
Flags: W
HStem: -34 68<0 68 137 273 341 478 546 683 751 887 956 1024> 663 20G<68 137 273 354.355 880.713 956> 663 20G<68 137 273 354.355 880.713 956>
VStem: 68 69<-683 -34 34 683> 273 68<-239 -34 34 239> 887 69<-683 -637.392 -461 -34 34 461 637.392 683>
LayerCount: 2
Fore
SplineSet
887 -34 m 25x9c
 751 -34 l 25
 887 -461 l 25
 887 -34 l 25x9c
751 34 m 25
 887 34 l 25
 887 461 l 25
 751 34 l 25
478 -34 m 17
 439 -34 l 4
 341 -34 l 9
 341 -239 l 25
 478 -34 l 17
341 34 m 25
 478 34 l 25
 341 239 l 25
 341 34 l 25
137 -34 m 25
 137 -683 l 25
 68 -683 l 25
 68 -34 l 25
 0 -34 l 25
 0 34 l 25
 68 34 l 25
 68 683 l 25
 137 683 l 25
 137 34 l 25
 273 34 l 25
 273 341 l 25
 341 341 l 25
 546 34 l 25
 683 34 l 25
 887 683 l 25
 956 683 l 25xdc
 956 34 l 25
 1024 34 l 25
 1024 -34 l 25
 956 -34 l 25
 956 -683 l 25
 887 -683 l 25
 683 -34 l 25
 546 -34 l 25
 341 -341 l 25
 273 -341 l 25
 273 -34 l 25
 137 -34 l 25
EndSplineSet
Validated: 1
EndChar

StartChar: bracketleft
Encoding: 91 91 82
Width: 341
Flags: W
HStem: -410 69<137 256> 341 69<137 256>
VStem: 68 188<-410 -341 341 410> 68 69<-341 341>
LayerCount: 2
Fore
SplineSet
68 -410 m 25xe0
 68 410 l 25
 256 410 l 25
 256 341 l 25xe0
 137 341 l 25
 137 -341 l 25xd0
 256 -341 l 29
 256 -410 l 29
 68 -410 l 25xe0
EndSplineSet
Validated: 1
EndChar

StartChar: bracketright
Encoding: 93 93 83
Width: 341
Flags: W
HStem: -410 69<85 205> 341 69<85 205>
VStem: 85 188<-410 -341 341 410> 205 68<-341 341>
LayerCount: 2
Fore
SplineSet
273 -410 m 25xe0
 85 -410 l 29
 85 -341 l 29xe0
 205 -341 l 25
 205 341 l 25xd0
 85 341 l 25
 85 410 l 25
 273 410 l 25
 273 -410 l 25xe0
EndSplineSet
Validated: 1
EndChar

StartChar: backslash
Encoding: 92 92 84
Width: 477
Flags: W
HStem: 936 20G<68 139.856>
VStem: 68 342
LayerCount: 2
Fore
SplineSet
341 -956 m 29
 68 956 l 25
 137 956 l 25
 410 -956 l 29
 341 -956 l 29
EndSplineSet
Validated: 1
EndChar

StartChar: parenleft
Encoding: 40 40 85
Width: 341
Flags: W
HStem: 1004 20G<260.977 273>
VStem: 68 69<-614 614>
LayerCount: 2
Fore
SplineSet
68 -683 m 25
 68 683 l 25
 273 1024 l 25
 273 870 l 25
 137 614 l 25
 137 -614 l 25
 273 -870 l 29
 273 -1024 l 25
 68 -683 l 25
EndSplineSet
Validated: 1
EndChar

StartChar: parenright
Encoding: 41 41 86
Width: 341
Flags: W
HStem: 1004 20G<68 80.0235>
VStem: 205 68<-614 614>
LayerCount: 2
Fore
SplineSet
273 -683 m 25
 68 -1024 l 25
 68 -870 l 29
 205 -614 l 25
 205 614 l 25
 68 870 l 25
 68 1024 l 25
 273 683 l 25
 273 -683 l 25
EndSplineSet
Validated: 1
EndChar

StartChar: dollar
Encoding: 36 36 87
Width: 546
Flags: W
HStem: -205 411<146.528 399.472>
VStem: 68 410<-126.472 126.547>
LayerCount: 2
Fore
SplineSet
68 0 m 24
 68 113 160 205 273 206 c 24
 386 205 478 113 478 0 c 24
 478 -113 386 -205 273 -205 c 24
 160 -205 68 -113 68 0 c 24
EndSplineSet
Validated: 1
EndChar

StartChar: braceleft
Encoding: 123 123 88
Width: 477
Flags: W
HStem: 663 20G<398.012 410> 663 20G<398.012 410>
VStem: 205 68<-273 -102 102 273>
LayerCount: 2
Fore
SplineSet
205 -102 m 1xa0
 68 0 l 1
 205 102 l 1
 205 341 l 9
 410 683 l 25
 410 512 l 25
 273 273 l 17
 273 85 l 1
 154 0 l 1
 273 -85 l 1
 273 -273 l 13
 410 -512 l 29
 410 -683 l 29
 205 -341 l 21
 205 -102 l 1xa0
EndSplineSet
Validated: 1
EndChar

StartChar: braceright
Encoding: 125 125 89
Width: 477
Flags: W
HStem: 663 20G<68 79.9883> 663 20G<68 79.9883>
VStem: 205 68<-273 -102 102 273>
LayerCount: 2
Fore
SplineSet
273 -102 m 1xa0
 273 -341 l 13
 68 -683 l 29
 68 -512 l 29
 205 -273 l 21
 205 -85 l 1
 324 0 l 1
 205 85 l 1
 205 273 l 9
 68 512 l 25
 68 683 l 25
 273 341 l 17
 273 102 l 1
 410 0 l 1
 273 -102 l 1xa0
EndSplineSet
Validated: 1
EndChar

StartChar: asciitilde
Encoding: 126 126 90
Width: 477
Flags: W
HStem: -68 136
VStem: 68 342
LayerCount: 2
Fore
SplineSet
68 34 m 17
 188 68 l 1
 290 0 l 1
 410 34 l 9
 410 -34 l 17
 290 -68 l 1
 188 0 l 1
 68 -34 l 9
 68 34 l 17
EndSplineSet
Validated: 1
EndChar

StartChar: quotesingle
Encoding: 39 39 91
Width: 204
Flags: W
HStem: 683 21G<68 137> 683 21G<68 137> 936 20G<68 137>
VStem: 68 69<-956 -683 683 956>
LayerCount: 2
Fore
SplineSet
68 -683 m 25x30
 137 -683 l 25
 137 -956 l 25
 68 -956 l 25
 68 -683 l 25x30
68 683 m 25xb0
 68 956 l 25
 137 956 l 25
 137 683 l 25
 68 683 l 25xb0
EndSplineSet
Validated: 1
EndChar

StartChar: quotedbl
Encoding: 34 34 92
Width: 341
Flags: W
HStem: 614 21G<68 137 205 273> 614 21G<68 137 205 273> 1004 20G<68 137 205 273>
VStem: 68 69<-1024 -614 614 1024> 205 68<-1024 -614 614 1024>
LayerCount: 2
Fore
SplineSet
205 -614 m 25x38
 273 -614 l 25
 273 -1024 l 29
 205 -1024 l 29
 205 -614 l 25x38
205 614 m 25xb8
 205 1024 l 25
 273 1024 l 25
 273 614 l 25
 205 614 l 25xb8
68 -614 m 25
 137 -614 l 25
 137 -1024 l 29
 68 -1024 l 29
 68 -614 l 25
68 614 m 25
 68 1024 l 25
 137 1024 l 25
 137 614 l 25
 68 614 l 25
EndSplineSet
Validated: 1
EndChar

StartChar: grave
Encoding: 96 96 93
Width: 341
Flags: W
HStem: 683 21G<194.963 273> 683 21G<194.963 273> 936 20G<68 146.963>
VStem: 68 205
LayerCount: 2
Fore
SplineSet
205 -683 m 29x30
 273 -683 l 29
 137 -956 l 25
 68 -956 l 25
 205 -683 l 29x30
205 683 m 25xb0
 68 956 l 25
 137 956 l 25
 273 683 l 25
 205 683 l 25xb0
EndSplineSet
Validated: 1
EndChar

StartChar: less
Encoding: 60 60 94
Width: 341
Flags: W
HStem: 1004 20G<268.996 273>
VStem: 68 205
LayerCount: 2
Fore
SplineSet
273 -734 m 9
 273 -1024 l 25
 68 0 l 25
 273 1024 l 25
 273 734 l 25
 137 0 l 17
 273 -734 l 9
EndSplineSet
Validated: 1
EndChar

StartChar: greater
Encoding: 62 62 95
Width: 341
Flags: W
HStem: 1004 20G<68 72.0039>
VStem: 68 205
LayerCount: 2
Fore
SplineSet
68 -734 m 17
 205 0 l 9
 68 734 l 25
 68 1024 l 25
 273 0 l 25
 68 -1024 l 25
 68 -734 l 17
EndSplineSet
Validated: 1
EndChar

StartChar: numbersign
Encoding: 35 35 96
Width: 477
Flags: W
HStem: -171 69<68 137 205 273 341 410> -34 68<0 137 205 273 341 478> 102 70<68 137 205 273 341 410>
VStem: 137 68<-239 -171 -102 -34 34 102 172 239> 273 68<-239 -171 -102 -34 34 102 172 239>
LayerCount: 2
Fore
SplineSet
273 -102 m 25
 273 -34 l 25
 205 -34 l 25
 205 -102 l 25
 273 -102 l 25
273 34 m 25
 273 102 l 25
 205 102 l 25
 205 34 l 25
 273 34 l 25
0 -34 m 25
 0 34 l 25
 137 34 l 25
 137 102 l 25
 68 102 l 25
 68 172 l 25
 137 172 l 25
 137 239 l 25
 205 239 l 25
 205 172 l 25
 273 172 l 25
 273 239 l 25
 341 239 l 25
 341 172 l 25
 410 172 l 25
 410 102 l 25
 341 102 l 25
 341 34 l 25
 478 34 l 25
 478 -34 l 25
 341 -34 l 25
 341 -102 l 25
 410 -102 l 25
 410 -171 l 25
 341 -171 l 25
 341 -239 l 25
 273 -239 l 25
 273 -171 l 25
 205 -171 l 25
 205 -239 l 25
 137 -239 l 25
 137 -171 l 25
 68 -171 l 25
 68 -102 l 25
 137 -102 l 25
 137 -34 l 25
 0 -34 l 25
EndSplineSet
Validated: 1
EndChar

StartChar: yen
Encoding: 165 165 97
Width: 546
Flags: W
HStem: -205 411<146.528 399.472>
VStem: 68 410<-126.472 126.547>
LayerCount: 2
Fore
SplineSet
68 0 m 24
 68 113 160 205 273 206 c 24
 386 205 478 113 478 0 c 24
 478 -113 386 -205 273 -205 c 24
 160 -205 68 -113 68 0 c 24
EndSplineSet
Validated: 1
EndChar

StartChar: sterling
Encoding: 163 163 98
Width: 546
Flags: W
HStem: -205 411<146.528 399.472>
VStem: 68 410<-126.472 126.547>
LayerCount: 2
Fore
SplineSet
68 0 m 24
 68 113 160 205 273 206 c 24
 386 205 478 113 478 0 c 24
 478 -113 386 -205 273 -205 c 24
 160 -205 68 -113 68 0 c 24
EndSplineSet
Validated: 1
EndChar

StartChar: cent
Encoding: 162 162 99
Width: 546
Flags: W
HStem: -119 239<184.609 361.961>
VStem: 154 239<-88.3909 88.5545>
LayerCount: 2
Fore
SplineSet
154 0 m 0
 154 61 208 120 272 120 c 0
 273 120 l 4
 334 119 393 61 393 0 c 0
 393 -61 334 -119 273 -119 c 0
 212 -119 154 -61 154 0 c 0
EndSplineSet
Validated: 1
EndChar

StartChar: asciicircum
Encoding: 94 94 100
Width: 546
Flags: W
HStem: 321 20G<155.741 186.111> 321 20G<155.741 186.111 331.037 351.037> 683 21G<205 283 399.853 478> 683 21G<205 283 399.853 478>
VStem: 68 410
LayerCount: 2
Fore
SplineSet
68 -205 m 1x08
 137 -205 l 1
 171 -257 l 1
 205 -205 l 1
 273 -205 l 1
 171 -341 l 1
 68 -205 l 1x08
68 206 m 25
 171 341 l 25x88
 273 206 l 25
 205 206 l 17
 171 257 l 1
 137 206 l 9
 68 206 l 25
205 -683 m 25
 273 -683 l 25
 341 -819 l 25
 410 -683 l 25
 478 -683 l 25
 341 -956 l 25
 205 -683 l 25
205 683 m 25x28
 341 956 l 25
 478 683 l 25
 410 683 l 25
 341 819 l 25
 273 683 l 25
 205 683 l 25x28
EndSplineSet
Validated: 1
EndChar

StartChar: equal
Encoding: 61 61 101
Width: 477
Flags: W
HStem: -102 68<68 410> 34 68<68 410>
VStem: 68 342<-102 -34 34 102>
LayerCount: 2
Fore
SplineSet
68 -102 m 25
 68 -34 l 25
 410 -34 l 25
 410 -102 l 25
 68 -102 l 25
68 102 m 29
 410 102 l 25
 410 34 l 25
 68 34 l 25
 68 102 l 29
EndSplineSet
Validated: 1
EndChar

StartChar: at
Encoding: 64 64 102
Width: 614
Flags: W
HStem: -34 68<0 68 137 273 341 478 546 614> 663 20G<68 137> 683 321G<68 137 473.859 546>
VStem: 68 69<-683 -34 34 683> 478 68<-1024 -954.768 -683 -34 34 683 954.768 1024>
LayerCount: 2
Fore
SplineSet
478 -34 m 25x98
 341 -34 l 25
 478 -683 l 25
 478 -34 l 25x98
478 34 m 13
 478 683 l 25xb8
 341 34 l 17
 478 34 l 13
273 34 m 25
 478 1024 l 25
 546 1024 l 25
 546 34 l 25
 614 34 l 25
 614 -34 l 25
 546 -34 l 25
 546 -1024 l 25
 478 -1024 l 25
 273 -34 l 25
 137 -34 l 25
 137 -683 l 25
 68 -683 l 25
 68 -34 l 25
 0 -34 l 25
 0 34 l 25
 68 34 l 25
 68 683 l 25
 137 683 l 25xd8
 137 34 l 25
 273 34 l 25
EndSplineSet
Validated: 1
EndChar

StartChar: plus
Encoding: 43 43 103
Width: 477
Flags: W
HStem: -34 68<68 205 273 410>
VStem: 205 68<-171 -34 34 171>
LayerCount: 2
Fore
SplineSet
68 -34 m 25
 68 34 l 25
 205 34 l 25
 205 171 l 25
 273 171 l 25
 273 34 l 25
 410 34 l 25
 410 -34 l 25
 273 -34 l 25
 273 -171 l 25
 205 -171 l 25
 205 -34 l 25
 68 -34 l 25
EndSplineSet
Validated: 1
EndChar

StartChar: asterisk
Encoding: 42 42 104
Width: 341
Flags: W
HStem: -956 69<68 137 205 273> -34 68<68 137 205 273> 819 21G<137 205> 887 69<68 137 205 273> 1004 20G<137 205>
VStem: 68 205<-956 -887 -34 34 887 956> 137 68<-1024 -956 -887 -819 -102 -34 34 102 819 887 956 1024>
LayerCount: 2
Fore
SplineSet
68 -956 m 25xfc
 68 -887 l 25xfc
 137 -887 l 25
 137 -819 l 25
 205 -819 l 25
 205 -887 l 25xfa
 273 -887 l 25
 273 -956 l 25xfc
 205 -956 l 25
 205 -1024 l 25
 137 -1024 l 25
 137 -956 l 25xfa
 68 -956 l 25xfc
68 887 m 25
 68 956 l 25xfc
 137 956 l 25
 137 1024 l 25
 205 1024 l 25
 205 956 l 25xfa
 273 956 l 25
 273 887 l 25xfc
 205 887 l 25
 205 819 l 25
 137 819 l 25
 137 887 l 25xfa
 68 887 l 25
68 -34 m 25
 68 34 l 25xfc
 137 34 l 25
 137 102 l 25
 205 102 l 25
 205 34 l 25xfa
 273 34 l 25
 273 -34 l 25xfc
 205 -34 l 25
 205 -102 l 25
 137 -102 l 25
 137 -34 l 25xfa
 68 -34 l 25
EndSplineSet
Validated: 1
EndChar

StartChar: guillemotleft
Encoding: 171 171 105
Width: 341
Flags: W
HStem: 663 20G<266.997 273> 663 20G<266.997 273>
VStem: 68 205
LayerCount: 2
Fore
SplineSet
171 0 m 29x20
 273 325 l 29
 273 171 l 29
 222 0 l 29
 273 -171 l 29
 273 -324 l 29
 171 0 l 29x20
273 -444 m 13
 273 -683 l 29
 68 0 l 29
 273 683 l 29xa0
 273 444 l 29
 137 0 l 21
 273 -444 l 13
EndSplineSet
Validated: 1
EndChar

StartChar: guillemotright
Encoding: 187 187 106
Width: 341
Flags: W
HStem: 663 20G<68 74.0029> 663 20G<68 74.0029>
VStem: 68 205
LayerCount: 2
Fore
SplineSet
171 0 m 25x20
 68 -324 l 25
 68 -171 l 25
 119 0 l 25
 68 171 l 25
 68 325 l 25
 171 0 l 25x20
68 -444 m 17
 205 0 l 9
 68 444 l 25
 68 683 l 25xa0
 273 0 l 25
 68 -683 l 25
 68 -444 l 17
EndSplineSet
Validated: 1
EndChar

StartChar: copyright
Encoding: 169 169 107
Width: 546
Flags: W
HStem: -1024 68<68 478> 594 20G<202.655 225> 594 20G<202.655 225 403.028 410> 956 68<68 478>
VStem: 0 68<-956 956> 137 273<-156.278 156.278> 478 68<-956 956>
LayerCount: 2
Fore
SplineSet
478 956 m 29x9e
 68 956 l 25
 68 -956 l 25
 478 -956 l 25
 478 956 l 29x9e
0 1024 m 25
 546 1024 l 25
 546 -1024 l 25
 0 -1024 l 25
 0 1024 l 25
410 -937 m 25
 273 -546 l 25
 205 -614 l 25
 137 -34 l 25
 137 34 l 25
 205 614 l 25xde
 273 546 l 25
 410 939 l 25
 410 -937 l 25
EndSplineSet
Validated: 1
EndChar

StartChar: registered
Encoding: 174 174 108
Width: 546
Flags: W
HStem: -478 68<68 478> 321 20G<327.71 410> 321 20G<327.71 410> 410 68<68 478>
VStem: 0 68<-410 410> 478 68<-410 410>
LayerCount: 2
Fore
SplineSet
478 410 m 29x9c
 68 410 l 25
 68 -410 l 25
 478 -410 l 25
 478 410 l 29x9c
0 478 m 25
 546 478 l 25
 546 -478 l 25
 0 -478 l 25
 0 478 l 25
410 -341 m 25
 341 -341 l 25
 137 -34 l 25
 137 34 l 25
 341 341 l 25
 410 341 l 25xdc
 410 -341 l 25
EndSplineSet
Validated: 1
EndChar

StartChar: divide
Encoding: 247 247 109
Width: 477
Flags: W
HStem: 936 20G<338.144 410>
VStem: 68 342
LayerCount: 2
Fore
SplineSet
68 -956 m 29
 341 956 l 25
 410 956 l 25
 137 -956 l 29
 68 -956 l 29
EndSplineSet
Validated: 1
EndChar
